<svg width="109" height="50" viewBox="0 0 109 50" fill="none" xmlns="http://www.w3.org/2000/svg">
<g clip-path="url(#clip0_435_87)">
<path d="M70.741 15.4462V35.4359H60.7287V17.0041C60.7287 11.3587 58.1626 8.76126 53.7336 8.76126C48.9207 8.76126 45.4526 11.7468 45.4526 18.1712V35.4359H35.4403V0.518402H45.0043V4.60591C47.6993 1.62306 51.7418 0 56.4286 0C64.5807 0 70.741 4.80132 70.741 15.4462Z" fill="#0A223D"/>
<path d="M108.68 20.8338H82.5572C83.5208 25.1819 87.1795 27.8444 92.4406 27.8444C96.0993 27.8444 98.7299 26.7425 101.105 24.4707L106.434 30.3116C103.223 34.011 98.4104 35.957 92.1829 35.957C80.2434 35.957 72.4778 28.3628 72.4778 17.9785C72.4778 7.59418 80.3722 0 90.8999 0C101.428 0 108.874 6.88036 108.874 18.1088C108.874 18.8877 108.745 19.9897 108.68 20.8338ZM82.4283 14.9278H99.4385C98.7325 10.5146 95.4577 7.65932 90.967 7.65932C86.4762 7.65932 83.137 10.4495 82.431 14.9278H82.4283Z" fill="#0A223D"/>
<path d="M16.8545 1.49268C16.8545 1.49268 16.833 1.49268 16.8196 1.49268V10.6285C16.8196 10.6285 16.8411 10.6285 16.8545 10.6285C21.1654 10.6285 24.6737 14.1759 24.6737 18.5348C24.6737 22.8937 21.1654 26.4411 16.8545 26.4411C12.5436 26.4411 9.03522 22.8937 9.03522 18.5348H0C0 27.9312 7.56157 35.5769 16.8545 35.5769C26.1474 35.5769 33.709 27.9312 33.709 18.5348C33.709 9.13843 26.1501 1.49268 16.8545 1.49268Z" fill="#0A223D"/>
<path d="M16.8223 18.5348H0C0 9.14928 7.54277 1.50896 16.8223 1.49268V18.5348Z" fill="#E74F24"/>
<path d="M21.8553 45.0791H22.7465V49.9293H21.8553V45.0791Z" fill="#0A223D"/>
<path d="M29.6745 45.0791V49.9293H28.9417L26.2977 46.6452V49.9293H25.4146V45.0791H26.1474L28.7941 48.3632V45.0791H29.6772H29.6745Z" fill="#0A223D"/>
<path d="M36.6885 45.0791L34.5975 49.9293H33.7197L31.6233 45.0791H32.5896L34.1868 48.8219L35.7973 45.0791H36.6885Z" fill="#0A223D"/>
<path d="M42.1671 49.1748V49.9293H38.5702V45.0791H42.0705V45.8336H39.4587V47.0957H41.7752V47.8367H39.4587V49.1748H42.1671Z" fill="#0A223D"/>
<path d="M44.1293 49.419L44.438 48.7188C44.8218 49.0309 45.4311 49.2534 46.0217 49.2534C46.7679 49.2534 47.0846 48.982 47.0846 48.6238C47.0846 47.5761 44.234 48.2628 44.234 46.4606C44.234 45.6762 44.8513 45.0112 46.1666 45.0112C46.7411 45.0112 47.345 45.1632 47.7638 45.4401L47.4819 46.1403C47.0498 45.8852 46.5773 45.7603 46.1586 45.7603C45.4177 45.7603 45.1171 46.0508 45.1171 46.4172C45.1171 47.4485 47.9624 46.7781 47.9624 48.5586C47.9624 49.3349 47.3397 49.9998 46.0217 49.9998C45.2755 49.9998 44.5265 49.7637 44.1293 49.419Z" fill="#0A223D"/>
<path d="M51.1191 45.8418H49.53V45.0791H53.5994V45.8418H52.0103V49.9293H51.1191V45.8418Z" fill="#0A223D"/>
<path d="M60.0523 49.932L60.0443 46.7157L58.4686 49.3756H58.0713L56.4957 46.7564V49.9293H55.6448V45.0791H56.3776L58.2834 48.2954L60.1543 45.0791H60.8871L60.8952 49.9293H60.0523V49.932Z" fill="#0A223D"/>
<path d="M67.1603 49.1748V49.9293H63.5634V45.0791H67.0636V45.8336H64.4518V47.0957H66.7684V47.8367H64.4518V49.1748H67.1603Z" fill="#0A223D"/>
<path d="M73.7904 45.0791V49.9293H73.0576L70.4136 46.6452V49.9293H69.5278V45.0791H70.2606L72.9073 48.3632V45.0791H73.7904Z" fill="#0A223D"/>
<path d="M77.4248 45.8418H75.8358V45.0791H79.9078V45.8418H78.3187V49.9293H77.4275V45.8418H77.4248Z" fill="#0A223D"/>
<path d="M81.4969 49.419L81.8056 48.7188C82.1894 49.0309 82.7988 49.2534 83.3893 49.2534C84.1355 49.2534 84.4523 48.982 84.4523 48.6238C84.4523 47.5761 81.6016 48.2628 81.6016 46.4606C81.6016 45.6762 82.219 45.0112 83.5342 45.0112C84.1087 45.0112 84.7126 45.1632 85.1314 45.4401L84.8495 46.1403C84.4174 45.8852 83.9449 45.7603 83.5262 45.7603C82.7853 45.7603 82.4847 46.0508 82.4847 46.4172C82.4847 47.4485 85.3273 46.7781 85.3273 48.5586C85.3273 49.3349 84.7046 49.9998 83.3893 49.9998C82.6431 49.9998 81.8942 49.7637 81.4969 49.419Z" fill="#0A223D"/>
</g>
<defs>
<clipPath id="clip0_435_87">
<rect width="108.871" height="50" fill="white"/>
</clipPath>
</defs>
</svg>
